<?xml version="1.0" standalone="no"?>
<!DOCTYPE svg PUBLIC "-//W3C//DTD SVG 20010904//EN"
 "http://www.w3.org/TR/2001/REC-SVG-20010904/DTD/svg10.dtd">
<svg version="1.0" xmlns="http://www.w3.org/2000/svg"
 width="700.000000pt" height="700.000000pt" viewBox="0 0 700.000000 700.000000"
 preserveAspectRatio="xMidYMid meet">
<metadata>
Created by potrace 1.11, written by Peter Selinger 2001-2013
</metadata>
<g transform="translate(0.000000,700.000000) scale(0.100000,-0.100000)"
fill="#000000" stroke="none">
<path d="M4049 6726 c-2 -2 -31 -7 -64 -10 -123 -14 -152 -18 -250 -38 -153
-30 -369 -92 -450 -127 -11 -5 -45 -19 -75 -31 -168 -68 -410 -205 -565 -319
-188 -138 -323 -266 -499 -471 -123 -143 -238 -326 -353 -560 -41 -85 -101
-200 -133 -255 -32 -55 -68 -119 -81 -141 -66 -115 -272 -471 -280 -484 -5 -8
-92 -159 -193 -335 -101 -176 -243 -423 -316 -550 -73 -126 -144 -250 -158
-275 -13 -25 -67 -118 -118 -207 -52 -89 -94 -164 -94 -167 0 -4 226 -5 502
-4 l502 3 201 350 c111 193 273 474 360 625 196 341 351 611 485 845 56 99
115 200 130 225 16 25 36 61 47 80 193 363 503 647 888 812 77 33 144 56 250
86 63 18 96 25 175 38 14 2 34 6 45 8 11 3 62 8 114 12 l95 7 -23 -39 c-13
-22 -58 -99 -100 -172 -42 -73 -81 -140 -86 -150 -6 -9 -37 -64 -70 -122 -33
-58 -64 -113 -70 -122 -5 -9 -33 -56 -61 -105 -27 -48 -148 -258 -267 -466
-120 -208 -230 -399 -244 -425 -14 -26 -34 -59 -44 -74 -11 -14 -19 -28 -19
-31 0 -3 -256 -452 -289 -507 -15 -24 -254 -440 -276 -479 -11 -20 -30 -52
-41 -71 -12 -19 -34 -57 -49 -85 -15 -27 -52 -91 -81 -142 -30 -50 -54 -94
-54 -97 0 -3 223 -6 495 -6 272 0 495 -2 495 -5 0 -3 -51 -94 -114 -203 -62
-108 -123 -213 -134 -232 -11 -19 -35 -62 -54 -95 -176 -305 -234 -405 -252
-438 -11 -21 -25 -46 -31 -55 -5 -9 -53 -91 -105 -182 -52 -91 -101 -174 -107
-185 -7 -11 -18 -32 -25 -47 -7 -16 -16 -28 -20 -28 -4 0 -8 -4 -8 -10 0 -5
-13 -32 -30 -58 l-30 -49 -500 0 -500 0 13 21 c8 12 31 53 52 91 22 39 43 71
47 73 4 2 8 8 8 13 0 6 42 83 94 172 51 89 145 252 208 362 64 110 175 304
248 430 73 127 144 250 158 274 14 25 38 67 53 93 16 27 29 51 29 53 0 3 -226
5 -502 5 l-503 0 -46 -83 c-26 -45 -131 -228 -234 -407 -103 -179 -199 -345
-212 -370 -14 -25 -40 -70 -58 -100 -38 -64 -303 -525 -319 -555 -14 -24 -163
-284 -176 -305 -8 -12 -201 -348 -328 -570 -14 -25 -32 -55 -40 -68 l-14 -22
1512 2 1511 3 28 51 c16 27 64 113 108 190 45 76 90 155 100 174 11 19 44 76
73 125 29 50 62 108 74 130 25 44 168 292 197 342 18 28 22 31 52 23 17 -5 49
-11 69 -14 21 -3 57 -10 80 -15 24 -5 72 -12 108 -16 36 -3 88 -9 115 -12 178
-18 498 -6 685 27 98 18 113 21 189 40 237 57 377 109 606 225 250 127 483
295 682 493 127 126 197 208 328 386 47 65 160 260 214 371 119 244 218 567
247 805 3 30 10 82 14 115 9 64 6 546 -3 581 -3 12 -8 45 -12 75 -5 43 -31
180 -50 269 -54 241 -185 551 -333 790 -155 248 -408 534 -627 706 -353 278
-783 474 -1200 548 -63 11 -95 16 -140 22 -27 3 -61 8 -75 11 -30 5 -496 13
-501 9z m1156 -1144 c138 -81 300 -212 416 -337 251 -271 435 -663 474 -1010
4 -33 9 -69 11 -80 6 -28 5 -280 -1 -340 -68 -668 -465 -1228 -1070 -1511
-149 -70 -354 -132 -491 -149 -27 -4 -60 -9 -74 -11 -14 -3 -106 -8 -204 -11
l-179 -6 43 79 c23 43 46 84 50 89 4 6 17 26 28 46 11 19 53 93 94 165 42 71
118 203 170 294 52 91 165 287 250 435 86 149 165 287 177 308 l21 37 -38 0
c-20 0 -245 1 -499 2 -254 1 -461 4 -459 7 2 3 38 65 80 138 42 72 76 136 76
142 0 6 5 11 10 11 6 0 10 4 10 8 0 5 57 107 126 228 161 277 201 348 233 405
14 25 100 175 191 332 91 158 182 317 204 354 21 37 86 150 143 250 l106 182
36 -20 c20 -10 50 -27 66 -37z"/>
</g>
</svg>
